PathFileType	4	(X/Y/Z)	c:/Users/goper/Files/vsCode/490R/osim_files/C15/C15_Slow_06.trc
DataRate	CameraRate	NumFrames	NumMarkers	Units                	OrigDataRate	OrigDataStartFrame	OrigNumFrames
250.00	250.00	10	36	mm	250.0	1057	2818
                Frame#	Time	LPSIS			LASIS			LTH1			LTH2			LTH3			LTH4			LLFE			LMFE			LSH1			LSH2			LSH3			LSH4			LLMAL			LMMAL			LCAL			LMTP5			LTOE			LMTP1			RPSIS			RASIS			RTH1			RTH2			RTH3			RTH4			RLFE			RMFE			RSH1			RSH2			RSH3			RSH4			RLMAL			RMMAL			RCAL			RMTP1			RTOE			RMTP5		
		X1	Y1	Z1	X2	Y2	Z2	X3	Y3	Z3	X4	Y4	Z4	X5	Y5	Z5	X6	Y6	Z6	X7	Y7	Z7	X8	Y8	Z8	X9	Y9	Z9	X10	Y10	Z10	X11	Y11	Z11	X12	Y12	Z12	X13	Y13	Z13	X14	Y14	Z14	X15	Y15	Z15	X16	Y16	Z16	X17	Y17	Z17	X18	Y18	Z18	X19	Y19	Z19	X20	Y20	Z20	X21	Y21	Z21	X22	Y22	Z22	X23	Y23	Z23	X24	Y24	Z24	X25	Y25	Z25	X26	Y26	Z26	X27	Y27	Z27	X28	Y28	Z28	X29	Y29	Z29	X30	Y30	Z30	X31	Y31	Z31	X32	Y32	Z32	X33	Y33	Z33	X34	Y34	Z34	X35	Y35	Z35	X36	Y36	Z36

1057	4.22400	1491.05164	1019.72021	242.08583	0.00000	0.00000	0.00000	1292.73328	620.19202	397.09015	1273.65100	576.14954	382.94791	1247.42969	645.47064	395.84409	1230.94568	604.45166	388.72827	1243.17603	515.83948	363.89587	0.00000	0.00000	0.00000	1314.43958	418.37790	367.61108	1318.62708	373.19479	374.24228	1252.51123	405.95816	381.01892	1266.79663	364.19348	386.52377	1310.31995	102.01244	329.44540	1263.56360	124.83891	251.08429	1357.82996	81.78958	269.11182	1205.22705	45.47710	383.75574	1132.49890	70.69157	343.76355	0.00000	0.00000	0.00000	1480.65161	1022.09796	121.82917	0.00000	0.00000	0.00000	1393.45642	623.95868	22.28347	0.00000	0.00000	0.00000	1334.06104	620.65936	39.63449	1341.33948	573.85504	45.22377	0.00000	0.00000	0.00000	1415.57056	470.20947	176.48767	1493.63330	389.31100	42.06074	1500.49390	345.99356	40.41238	0.00000	0.00000	0.00000	1449.79724	331.52328	42.95331	1529.45117	85.46070	112.31863	1496.89978	105.25776	198.26654	1594.63782	61.49022	159.67384	1392.89722	34.68967	200.88701	1357.66968	52.60409	148.65878	1418.99658	29.73908	80.49516
1058	4.22800	1487.94006	1019.32843	242.35805	0.00000	0.00000	0.00000	1289.88525	619.54529	396.78128	1272.01184	576.42218	382.99722	1244.50342	644.82068	395.91205	1228.13025	603.73846	388.57199	1239.63257	515.26471	363.72269	1211.80664	497.35934	248.86087	1309.52625	416.43011	367.42010	1312.82703	371.15213	374.03101	1248.30884	405.94611	381.08801	1259.92798	362.68362	385.95602	1298.45276	99.95758	329.54559	1252.27063	123.86236	251.20093	1345.64648	78.65782	269.36121	1192.19836	45.58232	383.71951	1120.09814	72.34354	343.73389	0.00000	0.00000	0.00000	1477.60071	1021.79700	122.10181	0.00000	0.00000	0.00000	1391.45728	623.77515	22.39094	1392.84375	578.57935	31.55249	1331.99231	620.20685	39.86685	1339.50256	573.48480	45.47338	0.00000	0.00000	0.00000	1414.11914	469.97156	176.45920	1492.59912	389.41382	42.10080	1499.51099	346.03949	40.43182	0.00000	0.00000	0.00000	0.00000	0.00000	0.00000	1529.30579	85.61566	112.32355	0.00000	0.00000	0.00000	1594.56079	61.60921	159.67918	1394.83887	32.85033	199.36418	1357.65442	52.52565	148.63135	1419.03931	29.75618	80.46963
1059	4.23200	1484.84851	1018.90857	242.60815	0.00000	0.00000	0.00000	1287.01599	618.77374	396.52573	1267.80664	574.93005	382.27707	1241.84375	644.19598	395.92923	1225.25000	603.20459	388.62640	1236.89624	514.85809	363.76419	1208.38123	497.27914	248.77185	1304.67834	414.51318	367.22427	1307.31128	369.47818	373.69724	1242.42090	404.60687	380.75528	1254.05115	361.77988	385.89911	1286.70532	98.14111	329.63437	1241.13025	123.12675	251.27614	1333.37366	76.00416	269.42453	1179.09326	45.77094	383.63925	1107.66943	74.16960	343.53091	0.00000	0.00000	0.00000	1474.52454	1021.48065	122.35544	0.00000	0.00000	0.00000	1389.48096	623.60693	22.47436	1391.04346	578.41595	31.64469	1329.96973	619.76178	40.17442	1337.69507	573.18915	45.70218	1393.02820	484.05753	61.78555	1413.01453	469.97382	176.51839	1491.55652	389.50903	42.11357	1498.68005	346.13159	40.48774	0.00000	0.00000	0.00000	1448.06592	331.47321	43.01728	1529.21973	85.80890	112.35224	0.00000	0.00000	0.00000	1594.49646	61.73321	159.65047	1394.82397	32.89997	199.38139	1357.60486	52.42215	148.53658	1419.01025	29.70980	80.44780
1060	4.23600	1481.71118	1018.50574	242.88420	0.00000	0.00000	0.00000	1284.16064	617.96326	396.33707	1266.15027	574.98010	382.28073	1239.02783	643.34882	395.99106	1222.39844	602.44031	388.52817	1233.65833	514.33777	363.66129	1204.91919	496.93335	248.68857	1299.75647	412.56555	367.09424	1301.26514	367.12509	373.74878	1238.17578	404.44467	380.83234	1248.34241	360.92221	386.00330	1276.54529	97.71377	330.41620	1229.93286	122.45333	251.27623	1321.16443	73.31226	269.59946	1165.96997	46.14497	383.29007	1095.59204	75.72739	342.96567	0.00000	0.00000	0.00000	1471.46521	1021.18109	122.61749	0.00000	0.00000	0.00000	1387.47791	623.42780	22.56202	1389.24158	578.26996	31.70157	1328.01477	619.46503	40.41600	1335.96155	572.86505	45.87106	1391.64331	483.88644	61.78040	1413.63184	471.09283	177.26601	1490.43762	389.55246	42.16376	1497.69177	346.23810	40.47437	0.00000	0.00000	0.00000	1447.56335	331.60947	42.74471	1529.08984	85.93981	112.37271	0.00000	0.00000	0.00000	1594.43713	61.86871	159.64915	1394.79736	32.89305	199.37494	1357.59949	52.36418	148.52133	1419.01892	29.69631	80.44991
1061	4.24000	1478.60193	1018.08331	243.15877	0.00000	0.00000	0.00000	1279.27893	615.91882	395.07574	1263.29846	574.22949	381.95700	1236.26257	642.70959	395.99811	1219.49756	601.57715	388.37820	1230.55493	513.78412	363.52469	1201.59424	496.59604	248.62784	1294.93555	410.68051	366.93839	1295.50891	365.15372	373.61884	1233.10071	403.72842	380.73627	1242.57166	360.10046	385.94873	1264.29761	95.78967	330.12180	1219.02173	121.99381	251.29475	1309.16016	70.92729	269.83115	1153.20911	46.86804	383.17798	1083.55591	77.68958	342.85571	0.00000	0.00000	0.00000	1468.40735	1020.89294	122.87799	0.00000	0.00000	0.00000	1385.44580	623.23291	22.65429	1387.42383	578.09595	31.79504	1326.17957	619.36768	40.64825	1334.15356	572.49695	46.09390	1390.24951	483.61667	61.81834	1412.27954	470.93823	177.31586	1489.47009	389.63828	42.28973	1496.82861	346.39182	40.54001	0.00000	0.00000	0.00000	1446.67883	331.49051	42.78596	1528.88025	86.04833	112.36212	0.00000	0.00000	0.00000	1594.38245	62.02596	159.66167	1394.72168	32.88467	199.38925	1357.35181	52.23980	148.39854	1419.05249	29.66150	80.41741
1062	4.24400	1475.48059	1017.65167	243.43565	0.00000	0.00000	0.00000	1278.94995	616.88226	396.96713	1260.62390	573.49860	381.65643	1233.56628	641.82898	396.06161	1216.89270	600.93945	388.55884	1227.23486	513.10150	363.38672	0.00000	0.00000	0.00000	1290.10474	408.81308	366.81607	1289.60840	363.14056	373.57684	1227.63049	402.63477	380.49493	1236.72473	359.20636	385.88821	1251.59424	93.53228	329.86084	1208.71509	122.72064	250.05887	1297.25098	68.65530	270.05130	1140.01636	47.43325	382.67358	1071.29529	80.50212	342.28909	0.00000	0.00000	0.00000	1465.31458	1020.52625	123.11278	0.00000	0.00000	0.00000	1383.42981	623.05072	22.74885	1385.58997	577.96045	31.87053	1323.98230	618.69257	40.94144	1332.30835	572.15179	46.40014	1388.84680	483.44965	61.79484	1410.96948	470.79697	177.41125	1488.34973	389.72702	42.27283	1495.81445	346.46817	40.58755	0.00000	0.00000	0.00000	1445.45361	331.15637	43.24398	1528.78259	86.24639	112.42175	0.00000	0.00000	0.00000	1594.28003	62.19093	159.65533	1394.64270	32.88512	199.35719	1357.31250	52.18845	148.35982	1419.06665	29.62935	80.36942
1063	4.24800	1472.34314	1017.20483	243.73247	0.00000	0.00000	0.00000	1276.53027	615.72760	395.70239	1256.78955	572.02203	381.01544	1231.21289	641.05035	396.49612	1214.17090	600.06586	388.53076	1224.13477	512.52954	363.29269	1194.92175	495.81741	248.65097	1285.23547	406.91272	366.75854	1283.84802	361.21603	373.48849	1223.21265	402.35898	380.56509	1230.94336	358.36392	385.83078	1241.07166	93.12948	330.20975	1197.44446	121.22569	251.26819	1285.30176	66.42584	270.23544	1127.62952	48.59019	382.46722	1059.37439	83.13510	341.68240	0.00000	0.00000	0.00000	1462.21570	1020.12634	123.40683	0.00000	0.00000	0.00000	1381.41357	622.85577	22.87645	0.00000	0.00000	0.00000	1322.05273	618.38507	41.14248	1330.52417	571.89661	46.56016	1387.35425	483.26117	61.84373	1409.56995	470.65140	177.36920	1487.27234	389.88007	42.36994	1494.93555	346.65149	40.65791	0.00000	0.00000	0.00000	1444.93298	331.37775	42.84725	1528.62256	86.41879	112.45490	0.00000	0.00000	0.00000	1594.22644	62.39010	159.65485	1394.53662	33.11974	199.41876	1357.30518	52.17821	148.35661	1419.02808	29.58767	80.34492
1064	4.25200	1469.16931	1016.72583	244.02960	0.00000	0.00000	0.00000	1273.89014	614.76959	395.55396	1255.41150	571.89062	381.14224	1228.72522	640.22528	396.69226	1211.76831	599.36041	388.72342	1221.06470	511.91092	363.17297	1191.54639	495.50720	248.64932	1280.34290	405.06683	366.70871	1278.12109	359.38608	373.43091	1217.62476	401.20749	380.28635	1224.78247	357.41025	385.59094	1230.23315	92.46357	330.67828	1187.44031	122.15657	250.01233	1273.43860	64.45352	270.48013	1114.81323	49.56681	381.90863	1047.68799	85.67735	340.97473	0.00000	0.00000	0.00000	1459.13293	1019.77734	123.65901	0.00000	0.00000	0.00000	1379.36145	622.70398	22.96828	1381.75891	577.60645	32.12534	1320.07092	618.03644	41.34404	1328.61096	571.48877	46.86344	1385.86340	483.04056	61.89880	1406.34485	469.36972	176.65958	1486.21692	390.00031	42.48962	1493.96838	346.84720	40.71535	0.00000	0.00000	0.00000	1443.68066	331.17197	43.23429	1528.52173	86.67262	112.45703	0.00000	0.00000	0.00000	1594.17236	62.63235	159.68048	1394.80591	33.11442	199.44566	1357.28650	52.12658	148.31021	1419.00452	29.54486	80.34166
1065	4.25600	1465.99170	1016.23096	244.34984	0.00000	0.00000	0.00000	1270.56323	613.38501	394.89438	1251.67200	570.38385	380.57211	1226.27551	639.31299	396.89584	1209.25867	598.53760	388.94601	1217.95825	511.12744	362.98764	1188.20056	495.03955	248.58405	1275.46448	403.21954	366.66727	1272.44019	357.74063	373.32159	1213.38818	401.03497	380.35226	1219.71326	357.13358	385.97290	1217.30005	90.14851	330.06082	1176.48938	121.02534	251.14925	1261.82581	62.61132	270.78632	1102.60291	50.87602	381.51001	1036.25415	88.32493	340.23276	0.00000	0.00000	0.00000	1456.02747	1019.42432	123.95214	0.00000	0.00000	0.00000	1377.30945	622.55713	23.05045	0.00000	0.00000	0.00000	1318.20154	617.87549	41.50816	1327.14160	571.42572	46.64407	1384.37769	482.85654	61.96691	1406.95544	470.51147	177.51033	1485.07983	390.14651	42.52537	1493.00415	346.98068	40.80538	0.00000	0.00000	0.00000	1443.03564	331.40698	42.81600	1528.34985	86.88006	112.48157	0.00000	0.00000	0.00000	1594.10693	62.86146	159.66899	1394.73401	33.13110	199.40958	1357.28601	52.10640	148.34886	1419.05139	29.54153	80.32891
1066	4.26000	1462.79443	1015.74030	244.64735	0.00000	0.00000	0.00000	1266.77429	611.68958	394.35574	1249.22156	569.49371	380.39493	1223.43433	638.25372	396.94168	1206.83899	597.73224	389.11697	1214.94312	510.35547	362.80896	1184.89697	494.57980	248.39948	1270.54053	401.36185	366.70248	1266.60107	355.89050	373.31488	1208.38586	400.33151	380.20758	1213.15173	355.76913	385.35004	1207.17957	90.18077	330.40662	1166.24451	121.00784	251.14336	1250.17615	60.85257	271.00058	1090.16907	52.10555	380.81436	1024.90173	91.08044	339.35773	0.00000	0.00000	0.00000	1452.91406	1019.05310	124.25603	0.00000	0.00000	0.00000	1375.23596	622.39996	23.15211	1377.98059	577.31927	32.34724	1315.97070	617.41547	41.76068	1325.26147	571.12421	46.86150	1382.83984	482.71100	62.01325	1403.47424	469.07196	176.75412	1484.03149	390.35742	42.62566	1492.09094	347.15024	40.89178	0.00000	0.00000	0.00000	1441.84436	331.22858	43.21274	1528.23596	87.12093	112.51617	0.00000	0.00000	0.00000	1594.38477	63.14175	159.88857	1394.64172	33.10348	199.34615	1357.19885	52.10154	148.26797	1419.06360	29.54744	80.35490
